# xmcd
#
# Track frame offsets:
#	150
#	13105
#	26042
#	38917
#	52392
#	68670
#	84512
#	98425
#	115572
#	129452
#	143610
#	157440
#
# Disc length: 2243 seconds
#
# Revision: 0
# Processed by: cddbd v1.4PL0 Copyright (c) Steve Scherf et al.
# Submitted via: EasyCDDAExtractor 5.0.2.1
#
DISCID=9e08c10c
DTITLE=B.B. King - Black 'N' Blues
DYEAR=1994
DGENRE=Blues
TTITLE0=Please Love Me
TTITLE1=Rock Me Baby
TTITLE2=Every Day I Have The Blues
TTITLE3=Woke Up This Morning
TTITLE4=My Own Fault
TTITLE5=Five Long Years
TTITLE6=You Upset Me Baby
TTITLE7=Blue Shadows
TTITLE8=The Woman I Love
TTITLE9=You Know I Love You
TTITLE10=Sweet Little Angel
TTITLE11=Treat Me Right
EXTD=
EXTT0=
EXTT1=
EXTT2=
EXTT3=
EXTT4=
EXTT5=
EXTT6=
EXTT7=
EXTT8=
EXTT9=
EXTT10=
EXTT11=
PLAYORDER=
